<svg width="367" height="113" viewBox="0 0 367 113" fill="none" xmlns="http://www.w3.org/2000/svg">
<g filter="url(#filter0_d)">
<path fill-rule="evenodd" clip-rule="evenodd" d="M184 55C200.569 55 214 41.5685 214 25H331C339.837 25 347 32.1634 347 41V69C347 77.8366 339.837 85 331 85H36C27.1635 85 20 77.8366 20 69V41C20 32.1634 27.1634 25 36 25H154C154 41.5685 167.431 55 184 55Z" fill="white"/>
</g>
<circle cx="184" cy="25" r="25" fill="#54D1ED"/>
<circle cx="184" cy="25" r="25" fill="url(#paint0_linear)" fill-opacity="0.4" style="mix-blend-mode:multiply"/>
<path d="M192.75 25.25C192.75 25.8023 192.302 26.25 191.75 26.25H186.25C185.698 26.25 185.25 26.6977 185.25 27.25V32.75C185.25 33.3023 184.802 33.75 184.25 33.75H183.75C183.198 33.75 182.75 33.3023 182.75 32.75V27.25C182.75 26.6977 182.302 26.25 181.75 26.25H176.25C175.698 26.25 175.25 25.8023 175.25 25.25V24.75C175.25 24.1977 175.698 23.75 176.25 23.75H181.75C182.302 23.75 182.75 23.3023 182.75 22.75V17.25C182.75 16.6977 183.198 16.25 183.75 16.25H184.25C184.802 16.25 185.25 16.6977 185.25 17.25V22.75C185.25 23.3023 185.698 23.75 186.25 23.75H191.75C192.302 23.75 192.75 24.1977 192.75 24.75V25.25Z" fill="#FAF9FD"/>
<path fill-rule="evenodd" clip-rule="evenodd" d="M48.5 47.5H45.5L55.5 38.5L65.5 47.5H62.5V55.5H56.5V49.5H54.5V55.5H48.5V47.5ZM60.5 45.69L55.5 41.19L50.5 45.69V53.5H52.5V47.5H58.5V53.5H60.5V45.69Z" fill="#54D1ED"/>
<path fill-rule="evenodd" clip-rule="evenodd" d="M48.5 47.5H45.5L55.5 38.5L65.5 47.5H62.5V55.5H56.5V49.5H54.5V55.5H48.5V47.5ZM60.5 45.69L55.5 41.19L50.5 45.69V53.5H52.5V47.5H58.5V53.5H60.5V45.69Z" fill="url(#paint1_linear)" fill-opacity="0.4" style="mix-blend-mode:multiply"/>
<path d="M44.8291 73V65.8613H45.6592V73H44.8291ZM50.8621 73V69.5381C50.8621 69.1019 50.7628 68.7764 50.5643 68.5615C50.3657 68.3467 50.0548 68.2393 49.6316 68.2393C49.0717 68.2393 48.6616 68.3906 48.4012 68.6934C48.1408 68.9961 48.0105 69.4958 48.0105 70.1924V73H47.2V67.6484H47.8592L47.991 68.3809H48.0301C48.1961 68.1172 48.4288 67.9137 48.7283 67.7705C49.0278 67.624 49.3615 67.5508 49.7293 67.5508C50.3738 67.5508 50.8589 67.707 51.1844 68.0195C51.5099 68.3288 51.6727 68.8252 51.6727 69.5088V73H50.8621ZM53.8531 73H53.0426V67.6484H53.8531V73ZM52.9742 66.1982C52.9742 66.0127 53.0198 65.8776 53.1109 65.793C53.2021 65.7051 53.316 65.6611 53.4527 65.6611C53.5829 65.6611 53.6952 65.7051 53.7896 65.793C53.884 65.8809 53.9312 66.016 53.9312 66.1982C53.9312 66.3805 53.884 66.5173 53.7896 66.6084C53.6952 66.6963 53.5829 66.7402 53.4527 66.7402C53.316 66.7402 53.2021 66.6963 53.1109 66.6084C53.0198 66.5173 52.9742 66.3805 52.9742 66.1982ZM57.4105 73.0977C56.6358 73.0977 56.0352 72.86 55.6088 72.3848C55.1856 71.9062 54.974 71.2308 54.974 70.3584C54.974 69.4632 55.1889 68.7715 55.6186 68.2832C56.0515 67.7949 56.6667 67.5508 57.4643 67.5508C57.7214 67.5508 57.9786 67.5785 58.2357 67.6338C58.4929 67.6891 58.6947 67.7542 58.8412 67.8291L58.5922 68.5176C58.4132 68.446 58.2178 68.3874 58.0063 68.3418C57.7947 68.293 57.6075 68.2686 57.4447 68.2686C56.3575 68.2686 55.8139 68.9619 55.8139 70.3486C55.8139 71.0062 55.9457 71.5107 56.2094 71.8623C56.4763 72.2139 56.8702 72.3896 57.391 72.3896C57.837 72.3896 58.2943 72.2936 58.7631 72.1016V72.8193C58.405 73.0049 57.9542 73.0977 57.4105 73.0977ZM60.548 73H59.7375V67.6484H60.548V73ZM59.6691 66.1982C59.6691 66.0127 59.7147 65.8776 59.8059 65.793C59.897 65.7051 60.0109 65.6611 60.1477 65.6611C60.2779 65.6611 60.3902 65.7051 60.4846 65.793C60.579 65.8809 60.6262 66.016 60.6262 66.1982C60.6262 66.3805 60.579 66.5173 60.4846 66.6084C60.3902 66.6963 60.2779 66.7402 60.1477 66.7402C60.0109 66.7402 59.897 66.6963 59.8059 66.6084C59.7147 66.5173 59.6691 66.3805 59.6691 66.1982ZM66.5859 70.3193C66.5859 71.1917 66.3662 71.8737 65.9268 72.3652C65.4873 72.8535 64.8802 73.0977 64.1055 73.0977C63.627 73.0977 63.2021 72.9854 62.8311 72.7607C62.46 72.5361 62.1735 72.2139 61.9717 71.7939C61.7699 71.374 61.6689 70.8825 61.6689 70.3193C61.6689 69.4469 61.887 68.7682 62.3232 68.2832C62.7594 67.7949 63.3649 67.5508 64.1396 67.5508C64.8883 67.5508 65.4824 67.7998 65.9219 68.2979C66.3646 68.7959 66.5859 69.4697 66.5859 70.3193ZM62.5088 70.3193C62.5088 71.0029 62.6455 71.5238 62.9189 71.8818C63.1924 72.2399 63.5944 72.4189 64.125 72.4189C64.6556 72.4189 65.0576 72.2415 65.3311 71.8867C65.6077 71.5286 65.7461 71.0062 65.7461 70.3193C65.7461 69.639 65.6077 69.123 65.3311 68.7715C65.0576 68.4167 64.6523 68.2393 64.1152 68.2393C63.5846 68.2393 63.1842 68.4134 62.9141 68.7617C62.6439 69.11 62.5088 69.6292 62.5088 70.3193Z" fill="#54D1ED"/>
<path d="M44.8291 73V65.8613H45.6592V73H44.8291ZM50.8621 73V69.5381C50.8621 69.1019 50.7628 68.7764 50.5643 68.5615C50.3657 68.3467 50.0548 68.2393 49.6316 68.2393C49.0717 68.2393 48.6616 68.3906 48.4012 68.6934C48.1408 68.9961 48.0105 69.4958 48.0105 70.1924V73H47.2V67.6484H47.8592L47.991 68.3809H48.0301C48.1961 68.1172 48.4288 67.9137 48.7283 67.7705C49.0278 67.624 49.3615 67.5508 49.7293 67.5508C50.3738 67.5508 50.8589 67.707 51.1844 68.0195C51.5099 68.3288 51.6727 68.8252 51.6727 69.5088V73H50.8621ZM53.8531 73H53.0426V67.6484H53.8531V73ZM52.9742 66.1982C52.9742 66.0127 53.0198 65.8776 53.1109 65.793C53.2021 65.7051 53.316 65.6611 53.4527 65.6611C53.5829 65.6611 53.6952 65.7051 53.7896 65.793C53.884 65.8809 53.9312 66.016 53.9312 66.1982C53.9312 66.3805 53.884 66.5173 53.7896 66.6084C53.6952 66.6963 53.5829 66.7402 53.4527 66.7402C53.316 66.7402 53.2021 66.6963 53.1109 66.6084C53.0198 66.5173 52.9742 66.3805 52.9742 66.1982ZM57.4105 73.0977C56.6358 73.0977 56.0352 72.86 55.6088 72.3848C55.1856 71.9062 54.974 71.2308 54.974 70.3584C54.974 69.4632 55.1889 68.7715 55.6186 68.2832C56.0515 67.7949 56.6667 67.5508 57.4643 67.5508C57.7214 67.5508 57.9786 67.5785 58.2357 67.6338C58.4929 67.6891 58.6947 67.7542 58.8412 67.8291L58.5922 68.5176C58.4132 68.446 58.2178 68.3874 58.0063 68.3418C57.7947 68.293 57.6075 68.2686 57.4447 68.2686C56.3575 68.2686 55.8139 68.9619 55.8139 70.3486C55.8139 71.0062 55.9457 71.5107 56.2094 71.8623C56.4763 72.2139 56.8702 72.3896 57.391 72.3896C57.837 72.3896 58.2943 72.2936 58.7631 72.1016V72.8193C58.405 73.0049 57.9542 73.0977 57.4105 73.0977ZM60.548 73H59.7375V67.6484H60.548V73ZM59.6691 66.1982C59.6691 66.0127 59.7147 65.8776 59.8059 65.793C59.897 65.7051 60.0109 65.6611 60.1477 65.6611C60.2779 65.6611 60.3902 65.7051 60.4846 65.793C60.579 65.8809 60.6262 66.016 60.6262 66.1982C60.6262 66.3805 60.579 66.5173 60.4846 66.6084C60.3902 66.6963 60.2779 66.7402 60.1477 66.7402C60.0109 66.7402 59.897 66.6963 59.8059 66.6084C59.7147 66.5173 59.6691 66.3805 59.6691 66.1982ZM66.5859 70.3193C66.5859 71.1917 66.3662 71.8737 65.9268 72.3652C65.4873 72.8535 64.8802 73.0977 64.1055 73.0977C63.627 73.0977 63.2021 72.9854 62.8311 72.7607C62.46 72.5361 62.1735 72.2139 61.9717 71.7939C61.7699 71.374 61.6689 70.8825 61.6689 70.3193C61.6689 69.4469 61.887 68.7682 62.3232 68.2832C62.7594 67.7949 63.3649 67.5508 64.1396 67.5508C64.8883 67.5508 65.4824 67.7998 65.9219 68.2979C66.3646 68.7959 66.5859 69.4697 66.5859 70.3193ZM62.5088 70.3193C62.5088 71.0029 62.6455 71.5238 62.9189 71.8818C63.1924 72.2399 63.5944 72.4189 64.125 72.4189C64.6556 72.4189 65.0576 72.2415 65.3311 71.8867C65.6077 71.5286 65.7461 71.0062 65.7461 70.3193C65.7461 69.639 65.6077 69.123 65.3311 68.7715C65.0576 68.4167 64.6523 68.2393 64.1152 68.2393C63.5846 68.2393 63.1842 68.4134 62.9141 68.7617C62.6439 69.11 62.5088 69.6292 62.5088 70.3193Z" fill="url(#paint2_linear)" fill-opacity="0.4" style="mix-blend-mode:multiply"/>
<path fill-rule="evenodd" clip-rule="evenodd" d="M110.25 41C110.25 40.17 110.92 39.5 111.75 39.5C112.58 39.5 113.25 40.17 113.25 41C113.25 41.83 112.58 42.5 111.75 42.5C110.92 42.5 110.25 41.83 110.25 41ZM110.25 47C110.25 46.17 110.92 45.5 111.75 45.5C112.58 45.5 113.25 46.17 113.25 47C113.25 47.83 112.58 48.5 111.75 48.5C110.92 48.5 110.25 47.83 110.25 47ZM111.75 51.5C110.92 51.5 110.25 52.18 110.25 53C110.25 53.82 110.93 54.5 111.75 54.5C112.57 54.5 113.25 53.82 113.25 53C113.25 52.18 112.58 51.5 111.75 51.5ZM128.75 54H114.75V52H128.75V54ZM114.75 48H128.75V46H114.75V48ZM114.75 42V40H128.75V42H114.75Z" fill="#A99DC6"/>
<path d="M107.614 73H106.784V69.6406H103.024V73H102.194V65.8613H103.024V68.8984H106.784V65.8613H107.614V73ZM109.965 73H109.155V67.6484H109.965V73ZM109.087 66.1982C109.087 66.0127 109.132 65.8776 109.223 65.793C109.314 65.7051 109.428 65.6611 109.565 65.6611C109.695 65.6611 109.808 65.7051 109.902 65.793C109.996 65.8809 110.044 66.016 110.044 66.1982C110.044 66.3805 109.996 66.5173 109.902 66.6084C109.808 66.6963 109.695 66.7402 109.565 66.7402C109.428 66.7402 109.314 66.6963 109.223 66.6084C109.132 66.5173 109.087 66.3805 109.087 66.1982ZM114.836 71.54C114.836 72.0381 114.651 72.4222 114.28 72.6924C113.909 72.9626 113.388 73.0977 112.717 73.0977C112.008 73.0977 111.454 72.9854 111.057 72.7607V72.0088C111.314 72.139 111.589 72.2415 111.882 72.3164C112.178 72.3913 112.463 72.4287 112.737 72.4287C113.16 72.4287 113.485 72.362 113.713 72.2285C113.941 72.0918 114.055 71.8851 114.055 71.6084C114.055 71.4001 113.964 71.2227 113.782 71.0762C113.603 70.9264 113.251 70.7507 112.727 70.5488C112.229 70.3633 111.874 70.2021 111.663 70.0654C111.454 69.9255 111.298 69.7676 111.194 69.5918C111.093 69.416 111.042 69.2061 111.042 68.9619C111.042 68.5257 111.22 68.1823 111.575 67.9316C111.929 67.6777 112.416 67.5508 113.035 67.5508C113.611 67.5508 114.174 67.668 114.724 67.9023L114.436 68.5615C113.899 68.3402 113.412 68.2295 112.976 68.2295C112.592 68.2295 112.302 68.2897 112.107 68.4102C111.912 68.5306 111.814 68.6966 111.814 68.9082C111.814 69.0514 111.85 69.1735 111.921 69.2744C111.996 69.3753 112.115 69.4714 112.278 69.5625C112.44 69.6536 112.753 69.7855 113.215 69.958C113.85 70.1891 114.278 70.4219 114.499 70.6562C114.724 70.8906 114.836 71.1852 114.836 71.54ZM117.588 72.4287C117.731 72.4287 117.87 72.4189 118.003 72.3994C118.137 72.3766 118.242 72.3538 118.321 72.3311V72.9512C118.233 72.9935 118.102 73.0277 117.93 73.0537C117.761 73.083 117.608 73.0977 117.471 73.0977C116.436 73.0977 115.918 72.5524 115.918 71.4619V68.2783H115.152V67.8877L115.918 67.5508L116.26 66.4082H116.729V67.6484H118.281V68.2783H116.729V71.4277C116.729 71.75 116.805 71.9974 116.958 72.1699C117.111 72.3424 117.321 72.4287 117.588 72.4287ZM123.714 70.3193C123.714 71.1917 123.494 71.8737 123.055 72.3652C122.615 72.8535 122.008 73.0977 121.233 73.0977C120.755 73.0977 120.33 72.9854 119.959 72.7607C119.588 72.5361 119.301 72.2139 119.1 71.7939C118.898 71.374 118.797 70.8825 118.797 70.3193C118.797 69.4469 119.015 68.7682 119.451 68.2832C119.887 67.7949 120.493 67.5508 121.268 67.5508C122.016 67.5508 122.61 67.7998 123.05 68.2979C123.493 68.7959 123.714 69.4697 123.714 70.3193ZM119.637 70.3193C119.637 71.0029 119.773 71.5238 120.047 71.8818C120.32 72.2399 120.722 72.4189 121.253 72.4189C121.784 72.4189 122.186 72.2415 122.459 71.8867C122.736 71.5286 122.874 71.0062 122.874 70.3193C122.874 69.639 122.736 69.123 122.459 68.7715C122.186 68.4167 121.78 68.2393 121.243 68.2393C120.713 68.2393 120.312 68.4134 120.042 68.7617C119.772 69.11 119.637 69.6292 119.637 70.3193ZM127.281 67.5508C127.519 67.5508 127.732 67.5703 127.921 67.6094L127.808 68.3613C127.587 68.3125 127.392 68.2881 127.222 68.2881C126.79 68.2881 126.418 68.4639 126.109 68.8154C125.803 69.167 125.65 69.6048 125.65 70.1289V73H124.84V67.6484H125.509L125.601 68.6396H125.64C125.839 68.2913 126.078 68.0228 126.358 67.834C126.638 67.6452 126.946 67.5508 127.281 67.5508ZM129.432 73H128.622V67.6484H129.432V73ZM128.553 66.1982C128.553 66.0127 128.599 65.8776 128.69 65.793C128.781 65.7051 128.895 65.6611 129.032 65.6611C129.162 65.6611 129.274 65.7051 129.369 65.793C129.463 65.8809 129.51 66.016 129.51 66.1982C129.51 66.3805 129.463 66.5173 129.369 66.6084C129.274 66.6963 129.162 66.7402 129.032 66.7402C128.895 66.7402 128.781 66.6963 128.69 66.6084C128.599 66.5173 128.553 66.3805 128.553 66.1982ZM134.142 73L133.981 72.2383H133.942C133.675 72.5736 133.408 72.8014 133.141 72.9219C132.877 73.0391 132.547 73.0977 132.15 73.0977C131.619 73.0977 131.203 72.9609 130.9 72.6875C130.6 72.4141 130.451 72.0251 130.451 71.5205C130.451 70.4398 131.315 69.8734 133.043 69.8213L133.952 69.792V69.46C133.952 69.04 133.86 68.7308 133.678 68.5322C133.499 68.3304 133.211 68.2295 132.814 68.2295C132.368 68.2295 131.863 68.3662 131.3 68.6396L131.051 68.0195C131.315 67.8763 131.603 67.764 131.915 67.6826C132.231 67.6012 132.547 67.5605 132.863 67.5605C133.501 67.5605 133.973 67.7021 134.279 67.9854C134.588 68.2686 134.743 68.7227 134.743 69.3477V73H134.142ZM132.311 72.4287C132.815 72.4287 133.211 72.2904 133.497 72.0137C133.787 71.737 133.932 71.3496 133.932 70.8516V70.3682L133.121 70.4023C132.477 70.4251 132.011 70.526 131.725 70.7051C131.442 70.8809 131.3 71.1559 131.3 71.5303C131.3 71.8232 131.388 72.0462 131.564 72.1992C131.743 72.3522 131.992 72.4287 132.311 72.4287ZM136.928 73H136.117V65.4023H136.928V73Z" fill="#A99DC6"/>
<path d="M171.705 73L170.816 70.7295H167.955L167.076 73H166.236L169.058 65.832H169.756L172.564 73H171.705ZM170.557 69.9824L169.727 67.7705C169.62 67.4906 169.509 67.1471 169.395 66.7402C169.324 67.0527 169.221 67.3962 169.087 67.7705L168.248 69.9824H170.557ZM176.786 73V69.5381C176.786 69.1019 176.686 68.7764 176.488 68.5615C176.289 68.3467 175.978 68.2393 175.555 68.2393C174.992 68.2393 174.58 68.3923 174.32 68.6982C174.063 69.0042 173.934 69.5055 173.934 70.2021V73H173.123V65.4023H173.934V67.7021C173.934 67.9788 173.921 68.2083 173.895 68.3906H173.944C174.103 68.1335 174.329 67.9316 174.622 67.7852C174.919 67.6354 175.256 67.5605 175.633 67.5605C176.287 67.5605 176.777 67.7168 177.103 68.0293C177.432 68.3385 177.596 68.8317 177.596 69.5088V73H176.786ZM183.585 70.3193C183.585 71.1917 183.365 71.8737 182.926 72.3652C182.487 72.8535 181.879 73.0977 181.105 73.0977C180.626 73.0977 180.201 72.9854 179.83 72.7607C179.459 72.5361 179.173 72.2139 178.971 71.7939C178.769 71.374 178.668 70.8825 178.668 70.3193C178.668 69.4469 178.886 68.7682 179.322 68.2832C179.759 67.7949 180.364 67.5508 181.139 67.5508C181.888 67.5508 182.482 67.7998 182.921 68.2979C183.364 68.7959 183.585 69.4697 183.585 70.3193ZM179.508 70.3193C179.508 71.0029 179.645 71.5238 179.918 71.8818C180.192 72.2399 180.594 72.4189 181.124 72.4189C181.655 72.4189 182.057 72.2415 182.33 71.8867C182.607 71.5286 182.745 71.0062 182.745 70.3193C182.745 69.639 182.607 69.123 182.33 68.7715C182.057 68.4167 181.652 68.2393 181.114 68.2393C180.584 68.2393 180.183 68.4134 179.913 68.7617C179.643 69.11 179.508 69.6292 179.508 70.3193ZM187.152 67.5508C187.39 67.5508 187.603 67.5703 187.792 67.6094L187.68 68.3613C187.458 68.3125 187.263 68.2881 187.094 68.2881C186.661 68.2881 186.29 68.4639 185.98 68.8154C185.674 69.167 185.521 69.6048 185.521 70.1289V73H184.711V67.6484H185.38L185.473 68.6396H185.512C185.71 68.2913 185.95 68.0228 186.229 67.834C186.509 67.6452 186.817 67.5508 187.152 67.5508ZM190.934 67.5508C191.172 67.5508 191.385 67.5703 191.574 67.6094L191.462 68.3613C191.24 68.3125 191.045 68.2881 190.876 68.2881C190.443 68.2881 190.072 68.4639 189.762 68.8154C189.457 69.167 189.304 69.6048 189.304 70.1289V73H188.493V67.6484H189.162L189.255 68.6396H189.294C189.492 68.2913 189.732 68.0228 190.012 67.834C190.291 67.6452 190.599 67.5508 190.934 67.5508ZM195.566 73L195.405 72.2383H195.366C195.099 72.5736 194.832 72.8014 194.565 72.9219C194.301 73.0391 193.971 73.0977 193.574 73.0977C193.043 73.0977 192.627 72.9609 192.324 72.6875C192.024 72.4141 191.875 72.0251 191.875 71.5205C191.875 70.4398 192.739 69.8734 194.467 69.8213L195.376 69.792V69.46C195.376 69.04 195.284 68.7308 195.102 68.5322C194.923 68.3304 194.635 68.2295 194.238 68.2295C193.792 68.2295 193.287 68.3662 192.724 68.6396L192.475 68.0195C192.739 67.8763 193.027 67.764 193.339 67.6826C193.655 67.6012 193.971 67.5605 194.287 67.5605C194.925 67.5605 195.397 67.7021 195.703 67.9854C196.012 68.2686 196.167 68.7227 196.167 69.3477V73H195.566ZM193.735 72.4287C194.24 72.4287 194.635 72.2904 194.921 72.0137C195.211 71.737 195.356 71.3496 195.356 70.8516V70.3682L194.546 70.4023C193.901 70.4251 193.435 70.526 193.149 70.7051C192.866 70.8809 192.724 71.1559 192.724 71.5303C192.724 71.8232 192.812 72.0462 192.988 72.1992C193.167 72.3522 193.416 72.4287 193.735 72.4287ZM199.983 67.5508C200.22 67.5508 200.434 67.5703 200.622 67.6094L200.51 68.3613C200.289 68.3125 200.093 68.2881 199.924 68.2881C199.491 68.2881 199.12 68.4639 198.811 68.8154C198.505 69.167 198.352 69.6048 198.352 70.1289V73H197.541V67.6484H198.21L198.303 68.6396H198.342C198.541 68.2913 198.78 68.0228 199.06 67.834C199.34 67.6452 199.648 67.5508 199.983 67.5508Z" fill="#A99DC6"/>
<path fill-rule="evenodd" clip-rule="evenodd" d="M247.5 37C241.98 37 237.5 41.48 237.5 47C237.5 52.52 241.98 57 247.5 57C253.02 57 257.5 52.52 257.5 47C257.5 41.48 253.02 37 247.5 37ZM242.57 53.28C243 52.38 245.62 51.5 247.5 51.5C249.38 51.5 252.01 52.38 252.43 53.28C251.07 54.36 249.36 55 247.5 55C245.64 55 243.93 54.36 242.57 53.28ZM247.5 49.5C248.96 49.5 252.43 50.09 253.86 51.83C254.88 50.49 255.5 48.82 255.5 47C255.5 42.59 251.91 39 247.5 39C243.09 39 239.5 42.59 239.5 47C239.5 48.82 240.12 50.49 241.14 51.83C242.57 50.09 246.04 49.5 247.5 49.5ZM247.5 41C245.56 41 244 42.56 244 44.5C244 46.44 245.56 48 247.5 48C249.44 48 251 46.44 251 44.5C251 42.56 249.44 41 247.5 41ZM246 44.5C246 45.33 246.67 46 247.5 46C248.33 46 249 45.33 249 44.5C249 43.67 248.33 43 247.5 43C246.67 43 246 43.67 246 44.5Z" fill="#A99DC6"/>
<path d="M233.472 73L231.05 66.6719H231.011C231.057 67.1732 231.079 67.7689 231.079 68.459V73H230.313V65.8613H231.563L233.823 71.75H233.862L236.143 65.8613H237.383V73H236.553V68.4004C236.553 67.873 236.576 67.3001 236.621 66.6816H236.582L234.141 73H233.472ZM239.734 73H238.924V67.6484H239.734V73ZM238.855 66.1982C238.855 66.0127 238.901 65.8776 238.992 65.793C239.083 65.7051 239.197 65.6611 239.334 65.6611C239.464 65.6611 239.576 65.7051 239.671 65.793C239.765 65.8809 239.812 66.016 239.812 66.1982C239.812 66.3805 239.765 66.5173 239.671 66.6084C239.576 66.6963 239.464 66.7402 239.334 66.7402C239.197 66.7402 239.083 66.6963 238.992 66.6084C238.901 66.5173 238.855 66.3805 238.855 66.1982ZM245.941 73.0977C245.593 73.0977 245.274 73.0342 244.984 72.9072C244.698 72.777 244.457 72.5785 244.261 72.3115H244.203C244.242 72.624 244.261 72.9202 244.261 73.2002V75.4023H243.451V67.6484H244.11L244.222 68.3809H244.261C244.47 68.0879 244.712 67.8763 244.989 67.7461C245.266 67.6159 245.583 67.5508 245.941 67.5508C246.651 67.5508 247.198 67.7933 247.582 68.2783C247.969 68.7633 248.163 69.4437 248.163 70.3193C248.163 71.1982 247.966 71.8818 247.572 72.3701C247.181 72.8551 246.638 73.0977 245.941 73.0977ZM245.824 68.2393C245.277 68.2393 244.881 68.3906 244.637 68.6934C244.393 68.9961 244.268 69.4779 244.261 70.1387V70.3193C244.261 71.0713 244.387 71.61 244.637 71.9355C244.888 72.2578 245.29 72.4189 245.843 72.4189C246.306 72.4189 246.667 72.2318 246.927 71.8574C247.191 71.4831 247.323 70.9671 247.323 70.3096C247.323 69.6423 247.191 69.1312 246.927 68.7764C246.667 68.4183 246.299 68.2393 245.824 68.2393ZM251.544 73.0977C250.753 73.0977 250.128 72.8568 249.669 72.375C249.214 71.8932 248.986 71.2243 248.986 70.3682C248.986 69.5055 249.197 68.8203 249.621 68.3125C250.047 67.8047 250.618 67.5508 251.334 67.5508C252.005 67.5508 252.536 67.7721 252.926 68.2148C253.317 68.6543 253.512 69.2354 253.512 69.958V70.4707H249.826C249.842 71.099 250 71.5758 250.299 71.9014C250.602 72.2269 251.027 72.3896 251.574 72.3896C252.15 72.3896 252.719 72.2692 253.283 72.0283V72.751C252.996 72.8747 252.724 72.9626 252.467 73.0146C252.213 73.07 251.906 73.0977 251.544 73.0977ZM251.325 68.2295C250.895 68.2295 250.551 68.3695 250.294 68.6494C250.04 68.9294 249.891 69.3167 249.845 69.8115H252.643C252.643 69.3005 252.529 68.9098 252.301 68.6396C252.073 68.3662 251.748 68.2295 251.325 68.2295ZM257.04 67.5508C257.278 67.5508 257.491 67.5703 257.68 67.6094L257.568 68.3613C257.346 68.3125 257.151 68.2881 256.982 68.2881C256.549 68.2881 256.178 68.4639 255.868 68.8154C255.562 69.167 255.409 69.6048 255.409 70.1289V73H254.599V67.6484H255.268L255.361 68.6396H255.4C255.598 68.2913 255.837 68.0228 256.117 67.834C256.397 67.6452 256.705 67.5508 257.04 67.5508ZM260.793 68.2783H259.431V73H258.62V68.2783H257.663V67.9121L258.62 67.6191V67.3213C258.62 66.0062 259.195 65.3486 260.344 65.3486C260.627 65.3486 260.959 65.4056 261.34 65.5195L261.13 66.1689C260.817 66.068 260.55 66.0176 260.329 66.0176C260.023 66.0176 259.797 66.1201 259.65 66.3252C259.504 66.527 259.431 66.8525 259.431 67.3018V67.6484H260.793V68.2783ZM262.58 73H261.77V67.6484H262.58V73ZM261.701 66.1982C261.701 66.0127 261.747 65.8776 261.838 65.793C261.929 65.7051 262.043 65.6611 262.18 65.6611C262.31 65.6611 262.422 65.7051 262.517 65.793C262.611 65.8809 262.658 66.016 262.658 66.1982C262.658 66.3805 262.611 66.5173 262.517 66.6084C262.422 66.6963 262.31 66.7402 262.18 66.7402C262.043 66.7402 261.929 66.6963 261.838 66.6084C261.747 66.5173 261.701 66.3805 261.701 66.1982ZM264.809 73H263.999V65.4023H264.809V73Z" fill="#A99DC6"/>
<path fill-rule="evenodd" clip-rule="evenodd" d="M305.5 45C304.4 45 303.5 45.9 303.5 47C303.5 48.1 304.4 49 305.5 49C306.6 49 307.5 48.1 307.5 47C307.5 45.9 306.6 45 305.5 45ZM317.5 45C316.4 45 315.5 45.9 315.5 47C315.5 48.1 316.4 49 317.5 49C318.6 49 319.5 48.1 319.5 47C319.5 45.9 318.6 45 317.5 45ZM309.5 47C309.5 45.9 310.4 45 311.5 45C312.6 45 313.5 45.9 313.5 47C313.5 48.1 312.6 49 311.5 49C310.4 49 309.5 48.1 309.5 47Z" fill="#A99DC6"/>
<path d="M306.253 73L303.831 66.6719H303.792C303.838 67.1732 303.861 67.7689 303.861 68.459V73H303.094V65.8613H304.344L306.605 71.75H306.644L308.924 65.8613H310.164V73H309.334V68.4004C309.334 67.873 309.357 67.3001 309.403 66.6816H309.363L306.922 73H306.253ZM314.996 73L314.835 72.2383H314.796C314.529 72.5736 314.262 72.8014 313.995 72.9219C313.731 73.0391 313.401 73.0977 313.004 73.0977C312.473 73.0977 312.057 72.9609 311.754 72.6875C311.454 72.4141 311.305 72.0251 311.305 71.5205C311.305 70.4398 312.169 69.8734 313.897 69.8213L314.806 69.792V69.46C314.806 69.04 314.715 68.7308 314.532 68.5322C314.353 68.3304 314.065 68.2295 313.668 68.2295C313.222 68.2295 312.717 68.3662 312.154 68.6396L311.905 68.0195C312.169 67.8763 312.457 67.764 312.77 67.6826C313.085 67.6012 313.401 67.5605 313.717 67.5605C314.355 67.5605 314.827 67.7021 315.133 67.9854C315.442 68.2686 315.597 68.7227 315.597 69.3477V73H314.996ZM313.165 72.4287C313.67 72.4287 314.065 72.2904 314.352 72.0137C314.641 71.737 314.786 71.3496 314.786 70.8516V70.3682L313.976 70.4023C313.331 70.4251 312.866 70.526 312.579 70.7051C312.296 70.8809 312.154 71.1559 312.154 71.5303C312.154 71.8232 312.242 72.0462 312.418 72.1992C312.597 72.3522 312.846 72.4287 313.165 72.4287ZM312.975 66.8184C313.131 66.6165 313.299 66.3724 313.478 66.0859C313.66 65.7995 313.803 65.5505 313.907 65.3389H314.894V65.4414C314.75 65.653 314.537 65.9134 314.254 66.2227C313.971 66.5319 313.725 66.7712 313.517 66.9404H312.975V66.8184ZM320.424 71.54C320.424 72.0381 320.238 72.4222 319.867 72.6924C319.496 72.9626 318.975 73.0977 318.304 73.0977C317.595 73.0977 317.041 72.9854 316.644 72.7607V72.0088C316.901 72.139 317.177 72.2415 317.47 72.3164C317.766 72.3913 318.051 72.4287 318.324 72.4287C318.747 72.4287 319.073 72.362 319.301 72.2285C319.528 72.0918 319.642 71.8851 319.642 71.6084C319.642 71.4001 319.551 71.2227 319.369 71.0762C319.19 70.9264 318.838 70.7507 318.314 70.5488C317.816 70.3633 317.461 70.2021 317.25 70.0654C317.041 69.9255 316.885 69.7676 316.781 69.5918C316.68 69.416 316.63 69.2061 316.63 68.9619C316.63 68.5257 316.807 68.1823 317.162 67.9316C317.517 67.6777 318.003 67.5508 318.622 67.5508C319.198 67.5508 319.761 67.668 320.311 67.9023L320.023 68.5615C319.486 68.3402 318.999 68.2295 318.563 68.2295C318.179 68.2295 317.889 68.2897 317.694 68.4102C317.499 68.5306 317.401 68.6966 317.401 68.9082C317.401 69.0514 317.437 69.1735 317.509 69.2744C317.583 69.3753 317.702 69.4714 317.865 69.5625C318.028 69.6536 318.34 69.7855 318.803 69.958C319.437 70.1891 319.865 70.4219 320.087 70.6562C320.311 70.8906 320.424 71.1852 320.424 71.54Z" fill="#A99DC6"/>
<defs>
<filter id="filter0_d" x="0" y="13" width="367" height="100" filterUnits="userSpaceOnUse" color-interpolation-filters="sRGB">
<feFlood flood-opacity="0" result="BackgroundImageFix"/>
<feColorMatrix in="SourceAlpha" type="matrix" values="0 0 0 0 0 0 0 0 0 0 0 0 0 0 0 0 0 0 127 0"/>
<feOffset dy="8"/>
<feGaussianBlur stdDeviation="10"/>
<feColorMatrix type="matrix" values="0 0 0 0 0.771758 0 0 0 0 0.651354 0 0 0 0 0.925 0 0 0 0.05 0"/>
<feBlend mode="normal" in2="BackgroundImageFix" result="effect1_dropShadow"/>
<feBlend mode="normal" in="SourceGraphic" in2="effect1_dropShadow" result="shape"/>
</filter>
<linearGradient id="paint0_linear" x1="184" y1="0" x2="184" y2="50" gradientUnits="userSpaceOnUse">
<stop stop-color="#2C52D8" stop-opacity="0"/>
<stop offset="1" stop-color="#2C52D8"/>
</linearGradient>
<linearGradient id="paint1_linear" x1="55.5" y1="38.5" x2="55.5" y2="55.5" gradientUnits="userSpaceOnUse">
<stop stop-color="#2C52D8" stop-opacity="0"/>
<stop offset="1" stop-color="#2C52D8"/>
</linearGradient>
<linearGradient id="paint2_linear" x1="55.5" y1="62" x2="55.5" y2="76" gradientUnits="userSpaceOnUse">
<stop stop-color="#2C52D8" stop-opacity="0"/>
<stop offset="1" stop-color="#2C52D8"/>
</linearGradient>
</defs>
</svg>
